M48
; DRILL file {KiCad 8.0.1} date 2025-07-01T00:47:34+0900
; FORMAT={-:-/ absolute / metric / decimal}
; #@! TF.CreationDate,2025-07-01T00:47:34+09:00
; #@! TF.GenerationSoftware,Kicad,Pcbnew,8.0.1
; #@! TF.FileFunction,Plated,1,2,PTH
FMAT,2
METRIC
; #@! TA.AperFunction,Plated,PTH,ViaDrill
T1C0.300
; #@! TA.AperFunction,Plated,PTH,ComponentDrill
T2C0.350
; #@! TA.AperFunction,Plated,PTH,ComponentDrill
T3C1.500
%
G90
G05
T1
X82.609Y-174.9
X88.35Y-95.637
X92.7Y-83.0
X93.705Y-90.325
X94.705Y-90.325
X103.986Y-177.336
X108.4Y-110.6
X108.4Y-111.35
X108.4Y-112.1
X108.4Y-112.85
X109.15Y-110.6
X109.15Y-111.35
X109.15Y-112.1
X109.15Y-112.85
X117.95Y-140.125
X117.95Y-140.875
X117.95Y-141.625
X117.95Y-142.375
X118.7Y-140.125
X118.7Y-140.875
X118.7Y-141.625
X118.7Y-142.375
X128.192Y-176.942
X132.616Y-172.518
X135.6Y-192.625
X136.3Y-192.625
X136.975Y-174.525
X136.975Y-175.275
X137.0Y-192.625
X137.725Y-174.525
X137.725Y-175.275
X142.1Y-184.0
X142.1Y-184.75
X142.85Y-184.0
X142.85Y-184.75
X143.625Y-184.0
X143.625Y-184.75
X144.375Y-184.0
X144.375Y-184.75
X148.95Y-188.905
X151.475Y-184.875
X151.475Y-185.625
X152.225Y-184.875
X152.225Y-185.625
X152.48Y-172.619
X153.0Y-184.875
X153.0Y-185.625
X153.75Y-178.175
X153.75Y-184.875
X153.75Y-185.625
X154.5Y-178.175
X156.675Y-191.7
X156.675Y-192.45
X157.65Y-90.625
X158.26Y-114.438
X158.3Y-184.6
X158.3Y-185.35
X158.925Y-174.525
X158.925Y-175.275
X159.025Y-192.02
X159.05Y-184.6
X159.05Y-185.35
X159.675Y-174.525
X159.675Y-175.275
X159.825Y-184.6
X159.825Y-185.35
X160.575Y-184.6
X160.575Y-185.35
X161.125Y-192.98
X162.175Y-192.98
X163.06Y-177.73
X163.225Y-193.0
X164.275Y-193.0
X165.325Y-193.0
X165.533Y-186.678
X166.375Y-193.0
X166.494Y-187.608
X167.225Y-177.45
X167.225Y-178.2
X167.975Y-177.45
X167.975Y-178.2
X168.185Y-133.487
X169.375Y-186.386
X169.985Y-184.017
X170.825Y-172.7
X173.425Y-172.725
X173.575Y-152.537
X174.1Y-184.975
X174.15Y-172.725
X174.825Y-184.975
X174.875Y-172.725
X175.53Y-157.65
X175.575Y-184.975
X175.6Y-181.625
X176.35Y-181.625
X176.38Y-187.775
X177.1Y-181.625
X177.85Y-181.625
X187.225Y-182.825
X188.025Y-182.825
X188.825Y-182.825
X189.6Y-171.588
X189.625Y-182.825
X190.425Y-182.825
X190.55Y-172.825
X190.55Y-173.575
X191.667Y-173.225
X201.575Y-193.3
X209.375Y-172.387
X228.188Y-172.612
X231.975Y-190.25
X232.675Y-190.25
X233.375Y-190.25
X246.92Y-172.619
X266.762Y-173.019
X286.848Y-176.85
X297.275Y-192.625
X297.425Y-173.9
X297.425Y-174.65
X297.975Y-192.625
X298.15Y-173.9
X298.15Y-174.65
X298.675Y-192.625
X298.875Y-173.9
X298.875Y-174.65
X310.997Y-175.509
X325.85Y-173.9
X325.85Y-174.65
X326.575Y-173.9
X326.575Y-174.65
X327.3Y-173.9
X327.3Y-174.65
X339.375Y-175.509
X347.2Y-175.625
X348.0Y-175.674
X350.45Y-192.2
X351.125Y-192.2
X351.8Y-192.2
X358.907Y-134.287
X360.325Y-92.75
X362.012Y-177.1
X381.062Y-177.575
T2
X165.519Y-184.9
X166.42Y-183.998
X166.42Y-185.802
X167.322Y-183.097
X167.322Y-184.9
X167.322Y-186.703
X168.223Y-183.998
X168.223Y-185.802
X169.125Y-184.9
T3
X71.345Y-82.435
X71.345Y-106.248
X73.726Y-144.347
X73.726Y-182.447
X76.108Y-125.297
X76.108Y-182.447
X77.695Y-79.895
X77.695Y-103.707
X78.489Y-144.347
X80.076Y-141.808
X80.076Y-179.907
X82.457Y-122.757
X82.457Y-179.907
X83.251Y-163.397
X84.839Y-141.808
X89.601Y-160.857
X90.395Y-106.248
X96.745Y-103.707
X97.539Y-182.447
X99.92Y-125.297
X99.92Y-182.447
X103.889Y-179.907
X104.682Y-144.347
X106.27Y-122.757
X106.27Y-179.907
X109.445Y-82.435
X109.445Y-106.248
X111.032Y-141.808
X114.207Y-163.397
X115.795Y-79.895
X115.795Y-103.707
X118.97Y-125.297
X120.557Y-160.857
X121.351Y-182.447
X123.732Y-144.347
X123.732Y-182.447
X125.32Y-122.757
X127.701Y-179.907
X128.495Y-82.435
X128.495Y-106.248
X130.082Y-141.808
X130.082Y-179.907
X133.257Y-163.397
X134.845Y-79.895
X134.845Y-103.707
X138.02Y-125.297
X139.607Y-160.857
X142.782Y-144.347
X144.37Y-122.757
X147.545Y-82.435
X147.545Y-106.248
X149.132Y-141.808
X152.308Y-163.397
X153.895Y-79.895
X153.895Y-103.707
X157.07Y-125.297
X158.657Y-160.857
X161.832Y-144.347
X163.42Y-122.757
X166.595Y-82.435
X166.595Y-106.248
X168.183Y-141.808
X171.357Y-163.397
X172.945Y-79.895
X172.945Y-103.707
X176.12Y-125.297
X177.707Y-160.857
X180.882Y-144.347
X182.47Y-122.757
X185.645Y-106.248
X187.232Y-141.808
X190.407Y-163.397
X191.995Y-103.707
X192.789Y-182.447
X195.17Y-82.435
X195.17Y-125.297
X196.757Y-160.857
X199.139Y-179.907
X199.933Y-144.347
X201.52Y-79.895
X201.52Y-122.757
X204.695Y-106.248
X204.695Y-182.447
X206.282Y-141.808
X209.457Y-163.397
X211.045Y-103.707
X211.045Y-179.907
X214.22Y-82.435
X214.22Y-125.297
X215.807Y-160.857
X218.982Y-144.347
X220.57Y-79.895
X220.57Y-122.757
X223.745Y-106.248
X225.332Y-141.808
X228.507Y-163.397
X230.095Y-103.707
X233.27Y-82.435
X233.27Y-125.297
X234.857Y-160.857
X238.032Y-144.347
X239.62Y-79.895
X239.62Y-122.757
X242.795Y-106.248
X244.382Y-141.808
X247.557Y-163.397
X249.145Y-103.707
X252.32Y-82.435
X252.32Y-125.297
X253.907Y-160.857
X257.082Y-144.347
X258.67Y-79.895
X258.67Y-122.757
X261.845Y-106.248
X263.433Y-141.808
X264.226Y-182.447
X266.608Y-163.397
X268.195Y-103.707
X270.576Y-179.907
X271.37Y-125.297
X272.957Y-160.857
X276.132Y-144.347
X277.72Y-122.757
X280.895Y-82.435
X280.895Y-106.248
X282.482Y-141.808
X285.657Y-163.397
X285.657Y-182.447
X287.245Y-79.895
X287.245Y-103.707
X288.039Y-182.447
X290.42Y-125.297
X292.007Y-160.857
X292.007Y-179.907
X294.389Y-179.907
X295.183Y-144.347
X296.77Y-122.757
X299.945Y-82.435
X299.945Y-106.248
X301.532Y-141.808
X306.295Y-79.895
X306.295Y-103.707
X309.47Y-125.297
X309.47Y-182.447
X311.851Y-163.397
X311.851Y-182.447
X315.82Y-122.757
X315.82Y-179.907
X318.201Y-160.857
X318.201Y-179.907
X318.995Y-82.435
X318.995Y-106.248
X321.376Y-163.397
X325.345Y-79.895
X325.345Y-103.707
X326.139Y-144.347
X327.726Y-160.857
X328.52Y-106.248
X332.489Y-141.808
X333.282Y-125.297
X333.282Y-182.447
X334.87Y-103.707
X335.664Y-182.447
X338.045Y-82.435
X338.045Y-106.248
X338.045Y-163.397
X339.632Y-122.757
X339.632Y-179.907
X342.014Y-179.907
X344.395Y-79.895
X344.395Y-103.707
X344.395Y-160.857
X361.857Y-82.435
X361.857Y-106.248
X361.857Y-125.297
X361.857Y-182.447
X368.207Y-79.895
X368.207Y-103.707
X368.207Y-122.757
X368.207Y-179.907
X380.907Y-82.435
X380.907Y-106.248
X380.907Y-125.297
X380.907Y-163.397
X380.907Y-182.447
X387.257Y-79.895
X387.257Y-103.707
X387.257Y-122.757
X387.257Y-160.857
X387.257Y-179.907
X399.957Y-82.435
X399.957Y-106.248
X399.957Y-125.297
X399.957Y-182.447
X406.308Y-79.895
X406.308Y-103.707
X406.308Y-122.757
X406.308Y-179.907
M30
